<svg width="40" height="40" viewBox="0 0 40 40" fill="none" xmlns="http://www.w3.org/2000/svg">
<path fill-rule="evenodd" clip-rule="evenodd" d="M20.3107 0C20.8434 0 21.41 0.0220648 22.0372 0.0724987V3.9102C22.0372 20.8197 22.6819 28.1295 25.1815 39.4015C21.9876 40.2006 18.5999 40.2006 15.4115 39.3952C17.9277 28.0413 18.577 20.7315 18.577 3.9102V0.0724987C19.2106 0.0220648 19.7772 0 20.3107 0ZM39.6087 21.4313C39.6087 14.8544 36.0263 9.0718 30.6441 5.77783L30.7166 10.2428C33.916 12.993 35.9428 16.9931 35.9428 21.4313C35.9428 23.4581 35.5094 25.3919 34.749 27.1587C32.4329 24.9585 30.7828 22.3706 29.756 19.3146C28.5172 15.6156 28.228 11.5651 28.1839 6.6163L28.1894 4.48862L27.7355 4.29949L27.3194 4.13873C26.4778 3.82352 25.611 3.56347 24.7292 3.36646L24.7347 6.60999C24.8513 23.6976 27.8119 30.741 32.2162 36.035C36.7206 32.6355 39.6087 27.3588 39.6087 21.4313ZM15.8796 6.61315L15.8851 3.36962C14.6967 3.63597 13.536 4.01422 12.4249 4.49177L12.4304 6.61945C12.3807 11.5635 12.097 15.6187 10.8583 19.3178C9.83697 22.3737 8.18131 24.9569 5.8653 27.1618C5.10485 25.395 4.67143 23.4612 4.67143 21.4344C4.67143 16.9899 6.69273 12.9962 9.89764 10.246L9.97014 5.78099C4.58238 9.06865 1 14.8512 1 21.4344C1 27.362 3.89365 32.6386 8.39251 36.0382C12.8078 30.7505 15.7629 23.7008 15.8796 6.61315Z" fill="#3B175C"/>
</svg>
